<?xml version="1.0" encoding="utf-8" standalone="no"?>
<!DOCTYPE svg PUBLIC "-//W3C//DTD SVG 1.1//EN"
  "http://www.w3.org/Graphics/SVG/1.1/DTD/svg11.dtd">
<!-- Created with matplotlib (http://matplotlib.org/) -->
<svg height="345pt" version="1.1" viewBox="0 0 460 345" width="460pt" xmlns="http://www.w3.org/2000/svg" xmlns:xlink="http://www.w3.org/1999/xlink">
 <defs>
  <style type="text/css">
*{stroke-linecap:butt;stroke-linejoin:round;}
  </style>
 </defs>
 <g id="figure_1">
  <g id="patch_1">
   <path d="M 0 345.6 
L 460.8 345.6 
L 460.8 0 
L 0 0 
z
" style="fill:#ffffff;"/>
  </g>
  <g id="axes_1">
   <g id="patch_2">
    <path d="M 57.6 307.584 
L 414.72 307.584 
L 414.72 41.472 
L 57.6 41.472 
z
" style="fill:#ffffff;"/>
   </g>
   <g id="matplotlib.axis_1">
    <g id="xtick_1">
     <g id="line2d_1">
      <path clip-path="url(#p368b66ba35)" d="M 73.832727 307.584 
L 73.832727 41.472 
" style="fill:none;stroke:#b0b0b0;stroke-linecap:square;stroke-width:0.8;"/>
     </g>
     <g id="line2d_2">
      <defs>
       <path d="M 0 0 
L 0 3.5 
" id="mec84d922e3" style="stroke:#000000;stroke-width:0.8;"/>
      </defs>
      <g>
       <use style="stroke:#000000;stroke-width:0.8;" x="73.832727" xlink:href="#mec84d922e3" y="307.584"/>
      </g>
     </g>
     <g id="text_1">
      <!-- 0 -->
      <defs>
       <path d="M 31.78125 66.40625 
Q 24.171875 66.40625 20.328125 58.90625 
Q 16.5 51.421875 16.5 36.375 
Q 16.5 21.390625 20.328125 13.890625 
Q 24.171875 6.390625 31.78125 6.390625 
Q 39.453125 6.390625 43.28125 13.890625 
Q 47.125 21.390625 47.125 36.375 
Q 47.125 51.421875 43.28125 58.90625 
Q 39.453125 66.40625 31.78125 66.40625 
z
M 31.78125 74.21875 
Q 44.046875 74.21875 50.515625 64.515625 
Q 56.984375 54.828125 56.984375 36.375 
Q 56.984375 17.96875 50.515625 8.265625 
Q 44.046875 -1.421875 31.78125 -1.421875 
Q 19.53125 -1.421875 13.0625 8.265625 
Q 6.59375 17.96875 6.59375 36.375 
Q 6.59375 54.828125 13.0625 64.515625 
Q 19.53125 74.21875 31.78125 74.21875 
z
" id="DejaVuSans-30"/>
      </defs>
      <g transform="translate(70.651477 322.182437)scale(0.1 -0.1)">
       <use xlink:href="#DejaVuSans-30"/>
      </g>
     </g>
    </g>
    <g id="xtick_2">
     <g id="line2d_3">
      <path clip-path="url(#p368b66ba35)" d="M 127.762054 307.584 
L 127.762054 41.472 
" style="fill:none;stroke:#b0b0b0;stroke-linecap:square;stroke-width:0.8;"/>
     </g>
     <g id="line2d_4">
      <g>
       <use style="stroke:#000000;stroke-width:0.8;" x="127.762054" xlink:href="#mec84d922e3" y="307.584"/>
      </g>
     </g>
     <g id="text_2">
      <!-- 50 -->
      <defs>
       <path d="M 10.796875 72.90625 
L 49.515625 72.90625 
L 49.515625 64.59375 
L 19.828125 64.59375 
L 19.828125 46.734375 
Q 21.96875 47.46875 24.109375 47.828125 
Q 26.265625 48.1875 28.421875 48.1875 
Q 40.625 48.1875 47.75 41.5 
Q 54.890625 34.8125 54.890625 23.390625 
Q 54.890625 11.625 47.5625 5.09375 
Q 40.234375 -1.421875 26.90625 -1.421875 
Q 22.3125 -1.421875 17.546875 -0.640625 
Q 12.796875 0.140625 7.71875 1.703125 
L 7.71875 11.625 
Q 12.109375 9.234375 16.796875 8.0625 
Q 21.484375 6.890625 26.703125 6.890625 
Q 35.15625 6.890625 40.078125 11.328125 
Q 45.015625 15.765625 45.015625 23.390625 
Q 45.015625 31 40.078125 35.4375 
Q 35.15625 39.890625 26.703125 39.890625 
Q 22.75 39.890625 18.8125 39.015625 
Q 14.890625 38.140625 10.796875 36.28125 
z
" id="DejaVuSans-35"/>
      </defs>
      <g transform="translate(121.399554 322.182437)scale(0.1 -0.1)">
       <use xlink:href="#DejaVuSans-35"/>
       <use x="63.623047" xlink:href="#DejaVuSans-30"/>
      </g>
     </g>
    </g>
    <g id="xtick_3">
     <g id="line2d_5">
      <path clip-path="url(#p368b66ba35)" d="M 181.69138 307.584 
L 181.69138 41.472 
" style="fill:none;stroke:#b0b0b0;stroke-linecap:square;stroke-width:0.8;"/>
     </g>
     <g id="line2d_6">
      <g>
       <use style="stroke:#000000;stroke-width:0.8;" x="181.69138" xlink:href="#mec84d922e3" y="307.584"/>
      </g>
     </g>
     <g id="text_3">
      <!-- 100 -->
      <defs>
       <path d="M 12.40625 8.296875 
L 28.515625 8.296875 
L 28.515625 63.921875 
L 10.984375 60.40625 
L 10.984375 69.390625 
L 28.421875 72.90625 
L 38.28125 72.90625 
L 38.28125 8.296875 
L 54.390625 8.296875 
L 54.390625 0 
L 12.40625 0 
z
" id="DejaVuSans-31"/>
      </defs>
      <g transform="translate(172.14763 322.182437)scale(0.1 -0.1)">
       <use xlink:href="#DejaVuSans-31"/>
       <use x="63.623047" xlink:href="#DejaVuSans-30"/>
       <use x="127.246094" xlink:href="#DejaVuSans-30"/>
      </g>
     </g>
    </g>
    <g id="xtick_4">
     <g id="line2d_7">
      <path clip-path="url(#p368b66ba35)" d="M 235.620707 307.584 
L 235.620707 41.472 
" style="fill:none;stroke:#b0b0b0;stroke-linecap:square;stroke-width:0.8;"/>
     </g>
     <g id="line2d_8">
      <g>
       <use style="stroke:#000000;stroke-width:0.8;" x="235.620707" xlink:href="#mec84d922e3" y="307.584"/>
      </g>
     </g>
     <g id="text_4">
      <!-- 150 -->
      <g transform="translate(226.076957 322.182437)scale(0.1 -0.1)">
       <use xlink:href="#DejaVuSans-31"/>
       <use x="63.623047" xlink:href="#DejaVuSans-35"/>
       <use x="127.246094" xlink:href="#DejaVuSans-30"/>
      </g>
     </g>
    </g>
    <g id="xtick_5">
     <g id="line2d_9">
      <path clip-path="url(#p368b66ba35)" d="M 289.550033 307.584 
L 289.550033 41.472 
" style="fill:none;stroke:#b0b0b0;stroke-linecap:square;stroke-width:0.8;"/>
     </g>
     <g id="line2d_10">
      <g>
       <use style="stroke:#000000;stroke-width:0.8;" x="289.550033" xlink:href="#mec84d922e3" y="307.584"/>
      </g>
     </g>
     <g id="text_5">
      <!-- 200 -->
      <defs>
       <path d="M 19.1875 8.296875 
L 53.609375 8.296875 
L 53.609375 0 
L 7.328125 0 
L 7.328125 8.296875 
Q 12.9375 14.109375 22.625 23.890625 
Q 32.328125 33.6875 34.8125 36.53125 
Q 39.546875 41.84375 41.421875 45.53125 
Q 43.3125 49.21875 43.3125 52.78125 
Q 43.3125 58.59375 39.234375 62.25 
Q 35.15625 65.921875 28.609375 65.921875 
Q 23.96875 65.921875 18.8125 64.3125 
Q 13.671875 62.703125 7.8125 59.421875 
L 7.8125 69.390625 
Q 13.765625 71.78125 18.9375 73 
Q 24.125 74.21875 28.421875 74.21875 
Q 39.75 74.21875 46.484375 68.546875 
Q 53.21875 62.890625 53.21875 53.421875 
Q 53.21875 48.921875 51.53125 44.890625 
Q 49.859375 40.875 45.40625 35.40625 
Q 44.1875 33.984375 37.640625 27.21875 
Q 31.109375 20.453125 19.1875 8.296875 
z
" id="DejaVuSans-32"/>
      </defs>
      <g transform="translate(280.006283 322.182437)scale(0.1 -0.1)">
       <use xlink:href="#DejaVuSans-32"/>
       <use x="63.623047" xlink:href="#DejaVuSans-30"/>
       <use x="127.246094" xlink:href="#DejaVuSans-30"/>
      </g>
     </g>
    </g>
    <g id="xtick_6">
     <g id="line2d_11">
      <path clip-path="url(#p368b66ba35)" d="M 343.47936 307.584 
L 343.47936 41.472 
" style="fill:none;stroke:#b0b0b0;stroke-linecap:square;stroke-width:0.8;"/>
     </g>
     <g id="line2d_12">
      <g>
       <use style="stroke:#000000;stroke-width:0.8;" x="343.47936" xlink:href="#mec84d922e3" y="307.584"/>
      </g>
     </g>
     <g id="text_6">
      <!-- 250 -->
      <g transform="translate(333.93561 322.182437)scale(0.1 -0.1)">
       <use xlink:href="#DejaVuSans-32"/>
       <use x="63.623047" xlink:href="#DejaVuSans-35"/>
       <use x="127.246094" xlink:href="#DejaVuSans-30"/>
      </g>
     </g>
    </g>
    <g id="xtick_7">
     <g id="line2d_13">
      <path clip-path="url(#p368b66ba35)" d="M 397.408686 307.584 
L 397.408686 41.472 
" style="fill:none;stroke:#b0b0b0;stroke-linecap:square;stroke-width:0.8;"/>
     </g>
     <g id="line2d_14">
      <g>
       <use style="stroke:#000000;stroke-width:0.8;" x="397.408686" xlink:href="#mec84d922e3" y="307.584"/>
      </g>
     </g>
     <g id="text_7">
      <!-- 300 -->
      <defs>
       <path d="M 40.578125 39.3125 
Q 47.65625 37.796875 51.625 33 
Q 55.609375 28.21875 55.609375 21.1875 
Q 55.609375 10.40625 48.1875 4.484375 
Q 40.765625 -1.421875 27.09375 -1.421875 
Q 22.515625 -1.421875 17.65625 -0.515625 
Q 12.796875 0.390625 7.625 2.203125 
L 7.625 11.71875 
Q 11.71875 9.328125 16.59375 8.109375 
Q 21.484375 6.890625 26.8125 6.890625 
Q 36.078125 6.890625 40.9375 10.546875 
Q 45.796875 14.203125 45.796875 21.1875 
Q 45.796875 27.640625 41.28125 31.265625 
Q 36.765625 34.90625 28.71875 34.90625 
L 20.21875 34.90625 
L 20.21875 43.015625 
L 29.109375 43.015625 
Q 36.375 43.015625 40.234375 45.921875 
Q 44.09375 48.828125 44.09375 54.296875 
Q 44.09375 59.90625 40.109375 62.90625 
Q 36.140625 65.921875 28.71875 65.921875 
Q 24.65625 65.921875 20.015625 65.03125 
Q 15.375 64.15625 9.8125 62.3125 
L 9.8125 71.09375 
Q 15.4375 72.65625 20.34375 73.4375 
Q 25.25 74.21875 29.59375 74.21875 
Q 40.828125 74.21875 47.359375 69.109375 
Q 53.90625 64.015625 53.90625 55.328125 
Q 53.90625 49.265625 50.4375 45.09375 
Q 46.96875 40.921875 40.578125 39.3125 
z
" id="DejaVuSans-33"/>
      </defs>
      <g transform="translate(387.864936 322.182437)scale(0.1 -0.1)">
       <use xlink:href="#DejaVuSans-33"/>
       <use x="63.623047" xlink:href="#DejaVuSans-30"/>
       <use x="127.246094" xlink:href="#DejaVuSans-30"/>
      </g>
     </g>
    </g>
   </g>
   <g id="matplotlib.axis_2">
    <g id="ytick_1">
     <g id="line2d_15">
      <path clip-path="url(#p368b66ba35)" d="M 57.6 297.977859 
L 414.72 297.977859 
" style="fill:none;stroke:#b0b0b0;stroke-linecap:square;stroke-width:0.8;"/>
     </g>
     <g id="line2d_16">
      <defs>
       <path d="M 0 0 
L -3.5 0 
" id="m12d749031f" style="stroke:#000000;stroke-width:0.8;"/>
      </defs>
      <g>
       <use style="stroke:#000000;stroke-width:0.8;" x="57.6" xlink:href="#m12d749031f" y="297.977859"/>
      </g>
     </g>
     <g id="text_8">
      <!-- −2500 -->
      <defs>
       <path d="M 10.59375 35.5 
L 73.1875 35.5 
L 73.1875 27.203125 
L 10.59375 27.203125 
z
" id="DejaVuSans-2212"/>
      </defs>
      <g transform="translate(16.770313 301.777078)scale(0.1 -0.1)">
       <use xlink:href="#DejaVuSans-2212"/>
       <use x="83.789062" xlink:href="#DejaVuSans-32"/>
       <use x="147.412109" xlink:href="#DejaVuSans-35"/>
       <use x="211.035156" xlink:href="#DejaVuSans-30"/>
       <use x="274.658203" xlink:href="#DejaVuSans-30"/>
      </g>
     </g>
    </g>
    <g id="ytick_2">
     <g id="line2d_17">
      <path clip-path="url(#p368b66ba35)" d="M 57.6 254.734784 
L 414.72 254.734784 
" style="fill:none;stroke:#b0b0b0;stroke-linecap:square;stroke-width:0.8;"/>
     </g>
     <g id="line2d_18">
      <g>
       <use style="stroke:#000000;stroke-width:0.8;" x="57.6" xlink:href="#m12d749031f" y="254.734784"/>
      </g>
     </g>
     <g id="text_9">
      <!-- −2000 -->
      <g transform="translate(16.770313 258.534003)scale(0.1 -0.1)">
       <use xlink:href="#DejaVuSans-2212"/>
       <use x="83.789062" xlink:href="#DejaVuSans-32"/>
       <use x="147.412109" xlink:href="#DejaVuSans-30"/>
       <use x="211.035156" xlink:href="#DejaVuSans-30"/>
       <use x="274.658203" xlink:href="#DejaVuSans-30"/>
      </g>
     </g>
    </g>
    <g id="ytick_3">
     <g id="line2d_19">
      <path clip-path="url(#p368b66ba35)" d="M 57.6 211.49171 
L 414.72 211.49171 
" style="fill:none;stroke:#b0b0b0;stroke-linecap:square;stroke-width:0.8;"/>
     </g>
     <g id="line2d_20">
      <g>
       <use style="stroke:#000000;stroke-width:0.8;" x="57.6" xlink:href="#m12d749031f" y="211.49171"/>
      </g>
     </g>
     <g id="text_10">
      <!-- −1500 -->
      <g transform="translate(16.770313 215.290928)scale(0.1 -0.1)">
       <use xlink:href="#DejaVuSans-2212"/>
       <use x="83.789062" xlink:href="#DejaVuSans-31"/>
       <use x="147.412109" xlink:href="#DejaVuSans-35"/>
       <use x="211.035156" xlink:href="#DejaVuSans-30"/>
       <use x="274.658203" xlink:href="#DejaVuSans-30"/>
      </g>
     </g>
    </g>
    <g id="ytick_4">
     <g id="line2d_21">
      <path clip-path="url(#p368b66ba35)" d="M 57.6 168.248635 
L 414.72 168.248635 
" style="fill:none;stroke:#b0b0b0;stroke-linecap:square;stroke-width:0.8;"/>
     </g>
     <g id="line2d_22">
      <g>
       <use style="stroke:#000000;stroke-width:0.8;" x="57.6" xlink:href="#m12d749031f" y="168.248635"/>
      </g>
     </g>
     <g id="text_11">
      <!-- −1000 -->
      <g transform="translate(16.770313 172.047853)scale(0.1 -0.1)">
       <use xlink:href="#DejaVuSans-2212"/>
       <use x="83.789062" xlink:href="#DejaVuSans-31"/>
       <use x="147.412109" xlink:href="#DejaVuSans-30"/>
       <use x="211.035156" xlink:href="#DejaVuSans-30"/>
       <use x="274.658203" xlink:href="#DejaVuSans-30"/>
      </g>
     </g>
    </g>
    <g id="ytick_5">
     <g id="line2d_23">
      <path clip-path="url(#p368b66ba35)" d="M 57.6 125.00556 
L 414.72 125.00556 
" style="fill:none;stroke:#b0b0b0;stroke-linecap:square;stroke-width:0.8;"/>
     </g>
     <g id="line2d_24">
      <g>
       <use style="stroke:#000000;stroke-width:0.8;" x="57.6" xlink:href="#m12d749031f" y="125.00556"/>
      </g>
     </g>
     <g id="text_12">
      <!-- −500 -->
      <g transform="translate(23.132812 128.804778)scale(0.1 -0.1)">
       <use xlink:href="#DejaVuSans-2212"/>
       <use x="83.789062" xlink:href="#DejaVuSans-35"/>
       <use x="147.412109" xlink:href="#DejaVuSans-30"/>
       <use x="211.035156" xlink:href="#DejaVuSans-30"/>
      </g>
     </g>
    </g>
    <g id="ytick_6">
     <g id="line2d_25">
      <path clip-path="url(#p368b66ba35)" d="M 57.6 81.762485 
L 414.72 81.762485 
" style="fill:none;stroke:#b0b0b0;stroke-linecap:square;stroke-width:0.8;"/>
     </g>
     <g id="line2d_26">
      <g>
       <use style="stroke:#000000;stroke-width:0.8;" x="57.6" xlink:href="#m12d749031f" y="81.762485"/>
      </g>
     </g>
     <g id="text_13">
      <!-- 0 -->
      <g transform="translate(44.2375 85.561704)scale(0.1 -0.1)">
       <use xlink:href="#DejaVuSans-30"/>
      </g>
     </g>
    </g>
   </g>
   <g id="line2d_27">
    <path clip-path="url(#p368b66ba35)" d="M 73.832727 96.870215 
L 74.911314 108.097466 
L 75.9899 110.221031 
L 77.068487 96.798349 
L 78.147073 121.622098 
L 79.22566 122.967426 
L 80.304246 169.048392 
L 81.382833 100.181117 
L 82.46142 114.73501 
L 83.540006 120.099682 
L 84.618593 127.476987 
L 85.697179 111.906932 
L 86.775766 121.608154 
L 87.854352 133.964357 
L 88.932939 109.163206 
L 90.011525 101.322786 
L 91.090112 120.296108 
L 92.168698 121.654572 
L 93.247285 113.605041 
L 94.325871 120.411317 
L 95.404458 134.588304 
L 96.483044 151.571192 
L 97.561631 140.456019 
L 98.640217 108.352463 
L 99.718804 96.273307 
L 101.875977 133.121912 
L 102.954564 140.758996 
L 104.03315 98.747857 
L 105.111737 100.185996 
L 106.190323 138.376578 
L 107.26891 108.20864 
L 108.347496 122.432295 
L 109.426083 94.881659 
L 110.504669 95.895539 
L 111.583256 124.830385 
L 112.661842 133.80051 
L 113.740429 125.660596 
L 114.819015 105.965004 
L 115.897602 95.765912 
L 116.976188 114.40807 
L 118.054775 105.959959 
L 119.133362 100.372368 
L 120.211948 106.307489 
L 121.290535 100.640071 
L 122.369121 132.503969 
L 123.447708 94.966042 
L 124.526294 128.973644 
L 125.604881 157.26465 
L 126.683467 98.16354 
L 127.762054 107.451464 
L 128.84064 124.506237 
L 129.919227 113.593701 
L 130.997813 128.4814 
L 132.0764 96.373217 
L 133.154986 124.230823 
L 134.233573 146.659171 
L 135.312159 116.729176 
L 136.390746 130.81493 
L 137.469333 126.17216 
L 138.547919 107.256164 
L 139.626506 104.281138 
L 140.705092 99.613221 
L 141.783679 91.584521 
L 142.862265 126.145861 
L 143.940852 98.110192 
L 145.019438 122.845061 
L 146.098025 97.656764 
L 147.176611 101.363326 
L 148.255198 126.019581 
L 149.333784 130.759901 
L 150.412371 118.268257 
L 151.490957 140.417383 
L 152.569544 107.840792 
L 153.64813 112.451458 
L 154.726717 141.596198 
L 155.805304 115.79763 
L 156.88389 145.253071 
L 157.962477 106.424222 
L 159.041063 105.570543 
L 160.11965 109.629843 
L 161.198236 133.214212 
L 162.276823 123.866537 
L 163.355409 118.874156 
L 164.433996 120.489895 
L 165.512582 102.753651 
L 166.591169 93.499826 
L 167.669755 103.061851 
L 168.748342 153.587178 
L 169.826928 104.846931 
L 170.905515 114.399423 
L 171.984101 132.44814 
L 173.062688 102.590463 
L 174.141275 139.151304 
L 175.219861 133.120998 
L 176.298448 132.826076 
L 177.377034 125.613453 
L 178.455621 98.066477 
L 179.534207 97.858987 
L 180.612794 115.77978 
L 181.69138 118.29288 
L 182.769967 109.444146 
L 183.848553 97.021417 
L 184.92714 95.643608 
L 186.005726 122.460339 
L 187.084313 93.134635 
L 188.162899 116.196917 
L 189.241486 121.070379 
L 190.320072 106.13011 
L 191.398659 131.971918 
L 192.477246 126.789167 
L 193.555832 120.684146 
L 194.634419 97.620458 
L 195.713005 142.171857 
L 196.791592 139.960702 
L 197.870178 119.12235 
L 198.948765 127.600009 
L 201.105938 133.881219 
L 202.184524 133.834525 
L 203.263111 97.024396 
L 204.341697 135.990899 
L 205.420284 108.806159 
L 206.49887 113.764859 
L 207.577457 120.083532 
L 208.656043 103.585406 
L 209.73463 112.072685 
L 210.813217 104.821997 
L 211.891803 100.581919 
L 212.97039 107.817054 
L 214.048976 101.944495 
L 215.127563 119.990177 
L 216.206149 114.748252 
L 217.284736 127.878615 
L 218.363322 132.554742 
L 219.441909 105.515913 
L 220.520495 97.62593 
L 221.599082 98.167399 
L 222.677668 122.289372 
L 223.756255 125.967452 
L 225.913428 103.22106 
L 226.992014 126.487347 
L 228.070601 137.666188 
L 229.149188 181.507585 
L 230.227774 94.737727 
L 231.306361 132.691238 
L 232.384947 95.455084 
L 233.463534 212.409523 
L 234.54212 102.753602 
L 235.620707 105.1442 
L 236.699293 112.714229 
L 237.77788 131.045464 
L 238.856466 117.652686 
L 239.935053 107.030265 
L 241.013639 99.566299 
L 242.092226 129.065955 
L 243.170812 95.703118 
L 244.249399 96.648507 
L 245.327986 114.085945 
L 246.406572 103.840669 
L 247.485159 112.375513 
L 249.642332 125.808104 
L 250.720918 115.816313 
L 251.799505 97.592536 
L 252.878091 96.521395 
L 253.956678 95.126412 
L 255.035264 106.826188 
L 256.113851 115.622181 
L 257.192437 118.105658 
L 258.271024 137.828323 
L 259.34961 118.989766 
L 260.428197 132.08624 
L 261.506783 114.4468 
L 262.58537 115.432288 
L 263.663957 117.06351 
L 264.742543 159.311034 
L 265.82113 109.417325 
L 266.899716 110.146458 
L 267.978303 139.542487 
L 269.056889 121.979662 
L 270.135476 116.773944 
L 271.214062 159.567421 
L 272.292649 131.543381 
L 273.371235 117.278963 
L 274.449822 113.026656 
L 275.528408 97.932331 
L 276.606995 113.720638 
L 277.685581 100.367478 
L 278.764168 194.478589 
L 279.842754 120.019503 
L 280.921341 135.453922 
L 281.999928 121.823316 
L 283.078514 89.087264 
L 284.157101 98.32138 
L 285.235687 128.403088 
L 286.314274 106.239069 
L 287.39286 92.343401 
L 288.471447 125.435825 
L 289.550033 110.636887 
L 290.62862 112.402905 
L 291.707206 95.503965 
L 292.785793 93.278582 
L 293.864379 95.44138 
L 294.942966 101.594823 
L 296.021552 94.747185 
L 297.100139 114.539541 
L 298.178725 100.768217 
L 299.257312 110.658803 
L 300.335899 113.339904 
L 301.414485 125.901426 
L 302.493072 233.242988 
L 303.571658 125.397927 
L 304.650245 131.168535 
L 305.728831 123.92143 
L 306.807418 124.67307 
L 307.886004 136.300719 
L 308.964591 100.56128 
L 310.043177 154.761638 
L 311.121764 127.851228 
L 312.20035 113.330686 
L 313.278937 140.855115 
L 314.357523 295.488 
L 315.43611 102.268224 
L 316.514696 122.481362 
L 317.593283 121.33715 
L 318.67187 124.494729 
L 319.750456 149.315304 
L 320.829043 121.203578 
L 321.907629 109.957031 
L 322.986216 133.526945 
L 324.064802 128.963343 
L 325.143389 114.751101 
L 326.221975 97.249141 
L 327.300562 112.317156 
L 328.379148 98.633748 
L 329.457735 132.161818 
L 330.536321 170.06019 
L 331.614908 119.505913 
L 332.693494 107.614841 
L 333.772081 99.109831 
L 334.850667 119.742244 
L 335.929254 98.158 
L 337.007841 129.385378 
L 338.086427 113.755546 
L 339.165014 128.406807 
L 340.2436 116.679988 
L 341.322187 113.33896 
L 342.400773 94.146475 
L 343.47936 138.502601 
L 344.557946 132.214495 
L 345.636533 124.228804 
L 346.715119 120.498167 
L 347.793706 111.859238 
L 348.872292 110.622582 
L 349.950879 149.80525 
L 351.029465 128.231441 
L 352.108052 150.277042 
L 353.186638 97.012575 
L 354.265225 127.176806 
L 355.343812 122.217564 
L 356.422398 123.500738 
L 357.500985 92.54548 
L 358.579571 124.962887 
L 359.658158 106.650505 
L 360.736744 111.660318 
L 361.815331 90.142958 
L 362.893917 115.56511 
L 363.972504 122.333634 
L 365.05109 151.310692 
L 366.129677 87.972778 
L 367.208263 124.532753 
L 368.28685 97.78735 
L 369.365436 114.80534 
L 370.444023 95.896423 
L 371.522609 130.44449 
L 372.601196 132.346923 
L 373.679783 118.736247 
L 374.758369 110.284225 
L 375.836956 119.1144 
L 376.915542 129.632322 
L 377.994129 115.083442 
L 379.072715 108.918347 
L 380.151302 121.651478 
L 381.229888 112.898603 
L 382.308475 112.192157 
L 384.465648 95.887561 
L 385.544234 113.641926 
L 386.622821 102.771749 
L 387.701407 117.231262 
L 388.779994 124.572063 
L 389.85858 155.382612 
L 390.937167 115.52436 
L 392.015754 97.112685 
L 393.09434 95.479537 
L 394.172927 96.29844 
L 395.251513 118.454986 
L 396.3301 120.280531 
L 397.408686 136.697804 
L 398.487273 126.961893 
L 398.487273 126.961893 
" style="fill:none;stroke:#008000;stroke-linecap:square;stroke-width:1.5;"/>
   </g>
   <g id="line2d_28">
    <path clip-path="url(#p368b66ba35)" d="M 73.832727 76.91926 
L 74.911314 75.621968 
L 75.9899 77.178719 
L 77.068487 75.535482 
L 78.147073 75.881427 
L 79.22566 74.411162 
L 80.304246 64.897686 
L 81.382833 74.843593 
L 82.46142 75.79494 
L 83.540006 73.373328 
L 84.618593 76.313857 
L 85.697179 73.719273 
L 86.775766 71.470633 
L 87.854352 70.259827 
L 88.932939 75.016565 
L 90.011525 76.227371 
L 91.090112 68.61659 
L 92.168698 75.79494 
L 94.325871 77.265205 
L 95.404458 76.400344 
L 96.483044 66.454436 
L 97.561631 75.276024 
L 98.640217 76.659802 
L 99.718804 75.708454 
L 100.797391 72.681439 
L 102.954564 73.632787 
L 104.03315 76.573316 
L 105.111737 74.324676 
L 106.190323 72.854411 
L 107.26891 73.632787 
L 108.347496 75.103051 
L 109.426083 73.805759 
L 110.504669 75.621968 
L 111.583256 71.903064 
L 113.740429 75.79494 
L 114.819015 77.265205 
L 115.897602 74.411162 
L 116.976188 75.276024 
L 118.054775 74.497648 
L 119.133362 75.967913 
L 120.211948 74.670621 
L 122.369121 75.708454 
L 123.447708 77.005747 
L 124.526294 72.076036 
L 125.604881 73.978731 
L 126.683467 75.103051 
L 127.762054 70.778744 
L 128.84064 74.497648 
L 129.919227 77.005747 
L 130.997813 70.432799 
L 132.0764 75.881427 
L 133.154986 73.978731 
L 134.233573 68.789562 
L 135.312159 76.659802 
L 136.390746 61.611212 
L 138.547919 76.573316 
L 139.626506 75.276024 
L 140.705092 76.746288 
L 141.783679 77.178719 
L 142.862265 74.411162 
L 145.019438 76.659802 
L 146.098025 76.054399 
L 147.176611 76.054399 
L 148.255198 76.659802 
L 149.333784 75.967913 
L 150.412371 75.016565 
L 151.490957 62.389587 
L 152.569544 77.092233 
L 153.64813 76.48683 
L 154.726717 75.189537 
L 155.805304 71.124688 
L 156.88389 69.654424 
L 157.962477 75.535482 
L 159.041063 63.513907 
L 160.11965 76.573316 
L 161.198236 72.854411 
L 162.276823 76.400344 
L 163.355409 74.23819 
L 164.433996 76.659802 
L 166.591169 77.265205 
L 167.669755 77.178719 
L 168.748342 53.568 
L 169.826928 75.448996 
L 170.905515 75.79494 
L 171.984101 72.421981 
L 173.062688 74.151704 
L 174.141275 73.546301 
L 175.219861 75.103051 
L 176.298448 74.497648 
L 177.377034 73.719273 
L 178.455621 77.005747 
L 179.534207 76.313857 
L 181.69138 77.265205 
L 182.769967 75.016565 
L 183.848553 75.967913 
L 184.92714 73.373328 
L 186.005726 76.140885 
L 187.084313 77.524663 
L 188.162899 69.135507 
L 189.241486 74.930079 
L 190.320072 76.746288 
L 191.398659 71.038202 
L 192.477246 76.746288 
L 193.555832 74.670621 
L 194.634419 76.746288 
L 195.713005 72.249008 
L 197.870178 75.016565 
L 198.948765 76.573316 
L 200.027351 75.881427 
L 201.105938 74.584134 
L 202.184524 73.719273 
L 203.263111 74.930079 
L 204.341697 76.313857 
L 205.420284 77.092233 
L 206.49887 70.086855 
L 207.577457 75.189537 
L 208.656043 77.092233 
L 209.73463 74.23819 
L 210.813217 74.757107 
L 211.891803 76.140885 
L 212.97039 70.259827 
L 214.048976 76.746288 
L 215.127563 75.448996 
L 216.206149 76.573316 
L 217.284736 74.843593 
L 218.363322 75.535482 
L 219.441909 74.670621 
L 220.520495 76.91926 
L 221.599082 75.967913 
L 222.677668 68.789562 
L 223.756255 74.843593 
L 224.834841 77.005747 
L 225.913428 76.91926 
L 226.992014 74.757107 
L 228.070601 71.297661 
L 229.149188 66.627409 
L 230.227774 76.140885 
L 232.384947 73.892245 
L 233.463534 61.092295 
L 234.54212 76.746288 
L 235.620707 77.178719 
L 236.699293 75.621968 
L 237.77788 73.11387 
L 238.856466 73.200356 
L 239.935053 74.757107 
L 241.013639 71.038202 
L 242.092226 75.016565 
L 243.170812 77.265205 
L 244.249399 76.746288 
L 245.327986 74.757107 
L 246.406572 76.054399 
L 247.485159 77.005747 
L 248.563745 76.746288 
L 249.642332 76.313857 
L 250.720918 73.805759 
L 251.799505 76.746288 
L 252.878091 74.324676 
L 253.956678 74.843593 
L 255.035264 76.832774 
L 256.113851 74.065218 
L 257.192437 76.832774 
L 258.271024 75.881427 
L 259.34961 74.584134 
L 260.428197 75.708454 
L 262.58537 77.178719 
L 263.663957 75.448996 
L 264.742543 67.146326 
L 265.82113 70.605772 
L 266.899716 72.681439 
L 267.978303 71.643605 
L 269.056889 71.643605 
L 270.135476 75.36251 
L 271.214062 64.724713 
L 272.292649 69.308479 
L 273.371235 69.654424 
L 274.449822 74.151704 
L 275.528408 74.757107 
L 276.606995 77.178719 
L 277.685581 76.48683 
L 278.764168 66.973353 
L 279.842754 76.573316 
L 280.921341 75.016565 
L 281.999928 71.211175 
L 283.078514 73.373328 
L 284.157101 76.91926 
L 285.235687 74.757107 
L 286.314274 67.146326 
L 287.39286 75.276024 
L 288.471447 70.086855 
L 289.550033 74.843593 
L 290.62862 74.843593 
L 291.707206 76.746288 
L 292.785793 76.573316 
L 293.864379 76.91926 
L 294.942966 73.978731 
L 296.021552 77.005747 
L 297.100139 73.546301 
L 298.178725 76.659802 
L 299.257312 70.000368 
L 300.335899 75.36251 
L 301.414485 77.178719 
L 302.493072 56.767988 
L 303.571658 71.557119 
L 304.650245 75.189537 
L 305.728831 71.211175 
L 306.807418 72.767925 
L 307.886004 74.930079 
L 308.964591 74.151704 
L 310.043177 67.751729 
L 311.121764 74.584134 
L 312.20035 76.400344 
L 313.278937 67.232812 
L 314.357523 53.827458 
L 315.43611 76.227371 
L 316.514696 77.178719 
L 317.593283 76.140885 
L 318.67187 74.411162 
L 319.750456 75.016565 
L 320.829043 67.578756 
L 321.907629 76.573316 
L 322.986216 59.881489 
L 324.064802 75.36251 
L 325.143389 75.621968 
L 326.221975 76.91926 
L 327.300562 73.11387 
L 328.379148 76.832774 
L 329.457735 76.140885 
L 330.536321 73.719273 
L 331.614908 74.843593 
L 332.693494 72.249008 
L 333.772081 75.535482 
L 334.850667 74.23819 
L 335.929254 76.227371 
L 337.007841 74.497648 
L 338.086427 76.746288 
L 339.165014 76.91926 
L 340.2436 74.065218 
L 341.322187 74.584134 
L 342.400773 75.36251 
L 343.47936 74.324676 
L 344.557946 55.384209 
L 345.636533 76.400344 
L 346.715119 73.805759 
L 347.793706 73.978731 
L 348.872292 73.805759 
L 349.950879 74.324676 
L 351.029465 76.054399 
L 352.108052 74.670621 
L 353.186638 75.016565 
L 354.265225 74.930079 
L 355.343812 76.91926 
L 356.422398 76.054399 
L 357.500985 73.978731 
L 358.579571 72.594953 
L 359.658158 73.286842 
L 360.736744 74.151704 
L 361.815331 75.79494 
L 362.893917 73.11387 
L 363.972504 76.400344 
L 365.05109 57.805821 
L 366.129677 73.892245 
L 367.208263 74.930079 
L 368.28685 74.584134 
L 369.365436 71.730091 
L 370.444023 76.573316 
L 371.522609 74.411162 
L 372.601196 69.913882 
L 373.679783 73.892245 
L 374.758369 74.757107 
L 375.836956 75.79494 
L 376.915542 66.973353 
L 377.994129 76.91926 
L 379.072715 74.411162 
L 380.151302 74.324676 
L 381.229888 75.881427 
L 382.308475 75.448996 
L 383.387061 77.351691 
L 384.465648 76.313857 
L 385.544234 77.351691 
L 386.622821 73.286842 
L 387.701407 74.23819 
L 388.779994 77.092233 
L 389.85858 74.843593 
L 390.937167 76.573316 
L 392.015754 75.016565 
L 393.09434 75.016565 
L 394.172927 76.227371 
L 395.251513 77.092233 
L 396.3301 71.297661 
L 397.408686 74.324676 
L 398.487273 74.411162 
L 398.487273 74.411162 
" style="fill:none;stroke:#0000ff;stroke-linecap:square;stroke-width:1.5;"/>
   </g>
   <g id="patch_3">
    <path d="M 57.6 307.584 
L 57.6 41.472 
" style="fill:none;stroke:#000000;stroke-linecap:square;stroke-linejoin:miter;stroke-width:0.8;"/>
   </g>
   <g id="patch_4">
    <path d="M 414.72 307.584 
L 414.72 41.472 
" style="fill:none;stroke:#000000;stroke-linecap:square;stroke-linejoin:miter;stroke-width:0.8;"/>
   </g>
   <g id="patch_5">
    <path d="M 57.6 307.584 
L 414.72 307.584 
" style="fill:none;stroke:#000000;stroke-linecap:square;stroke-linejoin:miter;stroke-width:0.8;"/>
   </g>
   <g id="patch_6">
    <path d="M 57.6 41.472 
L 414.72 41.472 
" style="fill:none;stroke:#000000;stroke-linecap:square;stroke-linejoin:miter;stroke-width:0.8;"/>
   </g>
   <g id="legend_1">
    <g id="patch_7">
     <path d="M 64.6 302.584 
L 128.475 302.584 
Q 130.475 302.584 130.475 300.584 
L 130.475 272.22775 
Q 130.475 270.22775 128.475 270.22775 
L 64.6 270.22775 
Q 62.6 270.22775 62.6 272.22775 
L 62.6 300.584 
Q 62.6 302.584 64.6 302.584 
z
" style="fill:#ffffff;opacity:0.8;stroke:#cccccc;stroke-linejoin:miter;"/>
    </g>
    <g id="line2d_29">
     <path d="M 66.6 278.326187 
L 86.6 278.326187 
" style="fill:none;stroke:#008000;stroke-linecap:square;stroke-width:1.5;"/>
    </g>
    <g id="line2d_30"/>
    <g id="text_14">
     <!-- score -->
     <defs>
      <path d="M 44.28125 53.078125 
L 44.28125 44.578125 
Q 40.484375 46.53125 36.375 47.5 
Q 32.28125 48.484375 27.875 48.484375 
Q 21.1875 48.484375 17.84375 46.4375 
Q 14.5 44.390625 14.5 40.28125 
Q 14.5 37.15625 16.890625 35.375 
Q 19.28125 33.59375 26.515625 31.984375 
L 29.59375 31.296875 
Q 39.15625 29.25 43.1875 25.515625 
Q 47.21875 21.78125 47.21875 15.09375 
Q 47.21875 7.46875 41.1875 3.015625 
Q 35.15625 -1.421875 24.609375 -1.421875 
Q 20.21875 -1.421875 15.453125 -0.5625 
Q 10.6875 0.296875 5.421875 2 
L 5.421875 11.28125 
Q 10.40625 8.6875 15.234375 7.390625 
Q 20.0625 6.109375 24.8125 6.109375 
Q 31.15625 6.109375 34.5625 8.28125 
Q 37.984375 10.453125 37.984375 14.40625 
Q 37.984375 18.0625 35.515625 20.015625 
Q 33.0625 21.96875 24.703125 23.78125 
L 21.578125 24.515625 
Q 13.234375 26.265625 9.515625 29.90625 
Q 5.8125 33.546875 5.8125 39.890625 
Q 5.8125 47.609375 11.28125 51.796875 
Q 16.75 56 26.8125 56 
Q 31.78125 56 36.171875 55.265625 
Q 40.578125 54.546875 44.28125 53.078125 
z
" id="DejaVuSans-73"/>
      <path d="M 48.78125 52.59375 
L 48.78125 44.1875 
Q 44.96875 46.296875 41.140625 47.34375 
Q 37.3125 48.390625 33.40625 48.390625 
Q 24.65625 48.390625 19.8125 42.84375 
Q 14.984375 37.3125 14.984375 27.296875 
Q 14.984375 17.28125 19.8125 11.734375 
Q 24.65625 6.203125 33.40625 6.203125 
Q 37.3125 6.203125 41.140625 7.25 
Q 44.96875 8.296875 48.78125 10.40625 
L 48.78125 2.09375 
Q 45.015625 0.34375 40.984375 -0.53125 
Q 36.96875 -1.421875 32.421875 -1.421875 
Q 20.0625 -1.421875 12.78125 6.34375 
Q 5.515625 14.109375 5.515625 27.296875 
Q 5.515625 40.671875 12.859375 48.328125 
Q 20.21875 56 33.015625 56 
Q 37.15625 56 41.109375 55.140625 
Q 45.0625 54.296875 48.78125 52.59375 
z
" id="DejaVuSans-63"/>
      <path d="M 30.609375 48.390625 
Q 23.390625 48.390625 19.1875 42.75 
Q 14.984375 37.109375 14.984375 27.296875 
Q 14.984375 17.484375 19.15625 11.84375 
Q 23.34375 6.203125 30.609375 6.203125 
Q 37.796875 6.203125 41.984375 11.859375 
Q 46.1875 17.53125 46.1875 27.296875 
Q 46.1875 37.015625 41.984375 42.703125 
Q 37.796875 48.390625 30.609375 48.390625 
z
M 30.609375 56 
Q 42.328125 56 49.015625 48.375 
Q 55.71875 40.765625 55.71875 27.296875 
Q 55.71875 13.875 49.015625 6.21875 
Q 42.328125 -1.421875 30.609375 -1.421875 
Q 18.84375 -1.421875 12.171875 6.21875 
Q 5.515625 13.875 5.515625 27.296875 
Q 5.515625 40.765625 12.171875 48.375 
Q 18.84375 56 30.609375 56 
z
" id="DejaVuSans-6f"/>
      <path d="M 41.109375 46.296875 
Q 39.59375 47.171875 37.8125 47.578125 
Q 36.03125 48 33.890625 48 
Q 26.265625 48 22.1875 43.046875 
Q 18.109375 38.09375 18.109375 28.8125 
L 18.109375 0 
L 9.078125 0 
L 9.078125 54.6875 
L 18.109375 54.6875 
L 18.109375 46.1875 
Q 20.953125 51.171875 25.484375 53.578125 
Q 30.03125 56 36.53125 56 
Q 37.453125 56 38.578125 55.875 
Q 39.703125 55.765625 41.0625 55.515625 
z
" id="DejaVuSans-72"/>
      <path d="M 56.203125 29.59375 
L 56.203125 25.203125 
L 14.890625 25.203125 
Q 15.484375 15.921875 20.484375 11.0625 
Q 25.484375 6.203125 34.421875 6.203125 
Q 39.59375 6.203125 44.453125 7.46875 
Q 49.3125 8.734375 54.109375 11.28125 
L 54.109375 2.78125 
Q 49.265625 0.734375 44.1875 -0.34375 
Q 39.109375 -1.421875 33.890625 -1.421875 
Q 20.796875 -1.421875 13.15625 6.1875 
Q 5.515625 13.8125 5.515625 26.8125 
Q 5.515625 40.234375 12.765625 48.109375 
Q 20.015625 56 32.328125 56 
Q 43.359375 56 49.78125 48.890625 
Q 56.203125 41.796875 56.203125 29.59375 
z
M 47.21875 32.234375 
Q 47.125 39.59375 43.09375 43.984375 
Q 39.0625 48.390625 32.421875 48.390625 
Q 24.90625 48.390625 20.390625 44.140625 
Q 15.875 39.890625 15.1875 32.171875 
z
" id="DejaVuSans-65"/>
     </defs>
     <g transform="translate(94.6 281.826187)scale(0.1 -0.1)">
      <use xlink:href="#DejaVuSans-73"/>
      <use x="52.099609" xlink:href="#DejaVuSans-63"/>
      <use x="107.080078" xlink:href="#DejaVuSans-6f"/>
      <use x="168.261719" xlink:href="#DejaVuSans-72"/>
      <use x="209.34375" xlink:href="#DejaVuSans-65"/>
     </g>
    </g>
    <g id="line2d_31">
     <path d="M 66.6 293.004312 
L 86.6 293.004312 
" style="fill:none;stroke:#0000ff;stroke-linecap:square;stroke-width:1.5;"/>
    </g>
    <g id="line2d_32"/>
    <g id="text_15">
     <!-- length -->
     <defs>
      <path d="M 9.421875 75.984375 
L 18.40625 75.984375 
L 18.40625 0 
L 9.421875 0 
z
" id="DejaVuSans-6c"/>
      <path d="M 54.890625 33.015625 
L 54.890625 0 
L 45.90625 0 
L 45.90625 32.71875 
Q 45.90625 40.484375 42.875 44.328125 
Q 39.84375 48.1875 33.796875 48.1875 
Q 26.515625 48.1875 22.3125 43.546875 
Q 18.109375 38.921875 18.109375 30.90625 
L 18.109375 0 
L 9.078125 0 
L 9.078125 54.6875 
L 18.109375 54.6875 
L 18.109375 46.1875 
Q 21.34375 51.125 25.703125 53.5625 
Q 30.078125 56 35.796875 56 
Q 45.21875 56 50.046875 50.171875 
Q 54.890625 44.34375 54.890625 33.015625 
z
" id="DejaVuSans-6e"/>
      <path d="M 45.40625 27.984375 
Q 45.40625 37.75 41.375 43.109375 
Q 37.359375 48.484375 30.078125 48.484375 
Q 22.859375 48.484375 18.828125 43.109375 
Q 14.796875 37.75 14.796875 27.984375 
Q 14.796875 18.265625 18.828125 12.890625 
Q 22.859375 7.515625 30.078125 7.515625 
Q 37.359375 7.515625 41.375 12.890625 
Q 45.40625 18.265625 45.40625 27.984375 
z
M 54.390625 6.78125 
Q 54.390625 -7.171875 48.1875 -13.984375 
Q 42 -20.796875 29.203125 -20.796875 
Q 24.46875 -20.796875 20.265625 -20.09375 
Q 16.0625 -19.390625 12.109375 -17.921875 
L 12.109375 -9.1875 
Q 16.0625 -11.328125 19.921875 -12.34375 
Q 23.78125 -13.375 27.78125 -13.375 
Q 36.625 -13.375 41.015625 -8.765625 
Q 45.40625 -4.15625 45.40625 5.171875 
L 45.40625 9.625 
Q 42.625 4.78125 38.28125 2.390625 
Q 33.9375 0 27.875 0 
Q 17.828125 0 11.671875 7.65625 
Q 5.515625 15.328125 5.515625 27.984375 
Q 5.515625 40.671875 11.671875 48.328125 
Q 17.828125 56 27.875 56 
Q 33.9375 56 38.28125 53.609375 
Q 42.625 51.21875 45.40625 46.390625 
L 45.40625 54.6875 
L 54.390625 54.6875 
z
" id="DejaVuSans-67"/>
      <path d="M 18.3125 70.21875 
L 18.3125 54.6875 
L 36.8125 54.6875 
L 36.8125 47.703125 
L 18.3125 47.703125 
L 18.3125 18.015625 
Q 18.3125 11.328125 20.140625 9.421875 
Q 21.96875 7.515625 27.59375 7.515625 
L 36.8125 7.515625 
L 36.8125 0 
L 27.59375 0 
Q 17.1875 0 13.234375 3.875 
Q 9.28125 7.765625 9.28125 18.015625 
L 9.28125 47.703125 
L 2.6875 47.703125 
L 2.6875 54.6875 
L 9.28125 54.6875 
L 9.28125 70.21875 
z
" id="DejaVuSans-74"/>
      <path d="M 54.890625 33.015625 
L 54.890625 0 
L 45.90625 0 
L 45.90625 32.71875 
Q 45.90625 40.484375 42.875 44.328125 
Q 39.84375 48.1875 33.796875 48.1875 
Q 26.515625 48.1875 22.3125 43.546875 
Q 18.109375 38.921875 18.109375 30.90625 
L 18.109375 0 
L 9.078125 0 
L 9.078125 75.984375 
L 18.109375 75.984375 
L 18.109375 46.1875 
Q 21.34375 51.125 25.703125 53.5625 
Q 30.078125 56 35.796875 56 
Q 45.21875 56 50.046875 50.171875 
Q 54.890625 44.34375 54.890625 33.015625 
z
" id="DejaVuSans-68"/>
     </defs>
     <g transform="translate(94.6 296.504312)scale(0.1 -0.1)">
      <use xlink:href="#DejaVuSans-6c"/>
      <use x="27.783203" xlink:href="#DejaVuSans-65"/>
      <use x="89.306641" xlink:href="#DejaVuSans-6e"/>
      <use x="152.685547" xlink:href="#DejaVuSans-67"/>
      <use x="216.162109" xlink:href="#DejaVuSans-74"/>
      <use x="255.371094" xlink:href="#DejaVuSans-68"/>
     </g>
    </g>
   </g>
  </g>
 </g>
 <defs>
  <clipPath id="p368b66ba35">
   <rect height="266.112" width="357.12" x="57.6" y="41.472"/>
  </clipPath>
 </defs>
</svg>
